<?xml version="1.0" standalone="no"?>
<!DOCTYPE svg PUBLIC "-//W3C//DTD SVG 20010904//EN"
 "http://www.w3.org/TR/2001/REC-SVG-20010904/DTD/svg10.dtd">
<svg version="1.0" xmlns="http://www.w3.org/2000/svg"
 width="515.000000pt" height="118.000000pt" viewBox="0 0 515.000000 118.000000"
 preserveAspectRatio="xMidYMid meet">

<g transform="translate(0.000000,118.000000) scale(0.100000,-0.100000)"
fill="#0f4b55" stroke="none">
<path d="M1364 1169 c-61 -17 -99 -85 -82 -146 28 -105 232 -122 283 -23 57
109 -62 210 -201 169z"/>
<path d="M3285 826 c-289 -70 -429 -330 -310 -573 40 -81 92 -133 182 -181 91
-48 172 -65 308 -66 183 0 305 40 411 136 50 46 94 110 94 138 0 6 -44 10
-120 10 l-119 0 -16 -30 c-25 -48 -75 -99 -119 -123 -59 -31 -193 -31 -252 0
-84 45 -145 136 -148 223 l-1 45 385 3 c211 1 388 6 393 11 14 14 -11 121 -43
188 -52 106 -162 185 -302 218 -76 18 -272 19 -343 1z m294 -120 c67 -35 110
-94 131 -183 l8 -33 -264 0 -264 0 6 28 c11 53 59 135 96 165 75 60 194 70
287 23z"/>
<path d="M4455 826 c-146 -35 -254 -116 -312 -234 -36 -71 -38 -81 -37 -166 1
-118 26 -185 99 -265 61 -65 139 -111 235 -137 88 -24 281 -24 369 -1 278 74
412 332 299 574 -49 105 -186 202 -326 232 -69 14 -263 13 -327 -3z m294 -119
c96 -48 146 -159 139 -306 -7 -133 -51 -215 -143 -264 -61 -33 -184 -31 -245
3 -57 32 -106 97 -126 168 -19 64 -15 207 7 257 38 86 104 146 183 166 47 12
135 1 185 -24z"/>
<path d="M4 813 c62 -172 257 -632 283 -667 67 -93 208 -155 320 -142 110 13
214 73 269 155 19 30 274 648 274 666 0 14 -148 3 -186 -14 -76 -34 -101 -78
-223 -383 -62 -156 -120 -291 -128 -300 -20 -23 -45 -23 -71 -1 -11 10 -72
148 -136 308 -124 309 -142 339 -221 376 -27 13 -63 19 -114 19 -65 0 -72 -2
-67 -17z"/>
<path d="M1305 817 c-3 -6 -4 -190 -3 -407 l3 -395 120 0 120 0 3 408 2 407
-120 0 c-87 0 -122 -3 -125 -13z"/>
<path d="M1733 818 c188 -475 255 -632 283 -671 68 -94 209 -156 321 -143 118
14 225 79 277 169 22 38 266 635 266 651 0 15 -146 5 -186 -13 -73 -33 -98
-76 -221 -381 -63 -157 -122 -293 -130 -302 -20 -23 -45 -23 -71 -1 -10 10
-63 128 -117 263 -151 377 -153 381 -240 421 -48 22 -190 27 -182 7z"/>
</g>
</svg>
